<svg width="552" height="380" viewBox="0 0 552 380" fill="none" xmlns="http://www.w3.org/2000/svg">
<path opacity="0.1" d="M48.7562 307.058C67.7305 307.058 83.1123 300.844 83.1123 293.18C83.1123 285.515 67.7305 279.301 48.7562 279.301C29.7818 279.301 14.4001 285.515 14.4001 293.18C14.4001 300.844 29.7818 307.058 48.7562 307.058Z" fill="black"/>
<path d="M48.7715 293.283C48.7715 293.283 68.385 217.716 45.1068 162.029C35.3344 138.67 32.1278 112.458 36.6094 87.1125C38.7699 75.0917 41.8954 63.3211 45.9466 51.9483" stroke="#535461" stroke-width="2" stroke-miterlimit="10"/>
<path d="M31.4636 16.7754C31.4636 26.0392 46.2291 52.9111 46.2291 52.9111C46.2291 52.9111 60.987 26.0218 60.987 16.7754C60.987 12.3263 59.4313 8.0594 56.6622 4.9134C53.8932 1.7674 50.1375 0 46.2215 0C42.3054 0 38.5498 1.7674 35.7807 4.9134C33.0116 8.0594 31.456 12.3263 31.456 16.7754H31.4636Z" fill="#6C63FF"/>
<path d="M7.05554 68.0992C11.4913 75.9057 36.7392 89.3156 36.7392 89.3156C36.7392 89.3156 36.2811 57.6384 31.8454 49.8665C29.6754 46.2459 26.3451 43.7332 22.5661 42.8654C18.7872 41.9975 14.8593 42.8433 11.622 45.2221C8.38461 47.6009 6.09459 51.3239 5.24131 55.5955C4.38802 59.8671 5.03915 64.3484 7.05554 68.0818V68.0992Z" fill="#6C63FF"/>
<path d="M8.11728 155.81C15.4008 159.982 43.1681 157.103 43.1681 157.103C43.1681 157.103 28.6622 130.023 21.4169 125.876C19.6854 124.884 17.7989 124.289 15.865 124.125C13.9311 123.962 11.9878 124.232 10.1459 124.922C8.3041 125.611 6.59982 126.706 5.13041 128.144C3.661 129.582 2.45525 131.334 1.58199 133.301C0.70872 135.268 0.18505 137.412 0.040871 139.609C-0.103308 141.806 0.13483 144.014 0.741688 146.106C1.96729 150.333 4.62037 153.832 8.11728 155.836V155.81Z" fill="#6C63FF"/>
<path d="M22.0501 221.966C28.6083 227.474 56.4061 229.964 56.4061 229.964C56.4061 229.964 46.1757 200.472 39.6098 194.99C36.4612 192.345 32.5165 191.229 28.6435 191.888C24.7706 192.546 21.2866 194.926 18.958 198.503C16.6294 202.081 15.647 206.562 16.2269 210.962C16.8068 215.363 18.9014 219.321 22.0501 221.966Z" fill="#6C63FF"/>
<path d="M67.7437 91.0765C61.8955 97.5299 34.6397 104.218 34.6397 104.218C34.6397 104.218 41.3124 73.4597 47.1605 67.0063C49.97 63.9006 53.7503 62.1901 57.6698 62.2512C61.5893 62.3122 65.3269 64.1396 68.0605 67.3315C70.794 70.5234 72.2996 74.8183 72.2459 79.2714C72.1922 83.7244 70.5837 87.9708 67.7742 91.0765H67.7437Z" fill="#6C63FF"/>
<path d="M83.2039 168.717C75.9204 172.889 48.153 170.009 48.153 170.009C48.153 170.009 62.6589 142.929 69.9043 138.783C71.6357 137.791 73.5223 137.196 75.4562 137.032C77.39 136.868 79.3334 137.139 81.1752 137.829C83.0171 138.518 84.7213 139.613 86.1908 141.051C87.6602 142.488 88.8659 144.241 89.7392 146.208C90.6124 148.175 91.1361 150.319 91.2803 152.516C91.4245 154.713 91.1863 156.921 90.5795 159.013C89.9726 161.106 89.0089 163.042 87.7434 164.712C86.4779 166.381 84.9354 167.751 83.2039 168.743V168.717Z" fill="#6C63FF"/>
<path d="M89.1208 246.488C82.5626 251.996 54.7647 254.485 54.7647 254.485C54.7647 254.485 64.9952 224.994 71.561 219.512C74.7096 216.866 78.6543 215.75 82.5273 216.409C86.4003 217.068 89.8842 219.447 92.2128 223.025C94.5414 226.602 95.5238 231.084 94.9439 235.484C94.3641 239.884 92.2694 243.842 89.1208 246.488Z" fill="#6C63FF"/>
<path d="M289.463 106.88L246.914 100.618C245.189 100.366 243.861 99.6203 243.906 98.9698C243.983 98.3192 245.433 98.0156 247.197 98.3018L289.653 105.284C290.822 105.475 291.707 105.978 291.654 106.421C291.6 106.837 290.623 107.054 289.463 106.88Z" fill="#6C63FF"/>
<path d="M289.73 107.704L247.052 102.691C245.319 102.491 243.845 102.856 243.792 103.506C243.738 104.157 245.12 104.842 246.846 105.016L289.6 109.353C290.776 109.474 291.738 109.214 291.776 108.771C291.806 108.303 290.898 107.843 289.73 107.704Z" fill="#6C63FF"/>
<path d="M353.754 144.178L396.295 137.916C398.02 137.664 399.349 136.918 399.303 136.268C399.226 135.617 397.776 135.314 396.012 135.6L353.556 142.582C352.388 142.773 351.502 143.276 351.555 143.719C351.609 144.135 352.586 144.352 353.754 144.178Z" fill="#6C63FF"/>
<path d="M353.479 145.002L396.157 139.989C397.89 139.789 399.364 140.154 399.417 140.804C399.471 141.455 398.089 142.14 396.363 142.314L353.609 146.65C352.433 146.772 351.471 146.512 351.433 146.069C351.403 145.601 352.311 145.141 353.479 145.002Z" fill="#6C63FF"/>
<path d="M213.024 196.092H202.649V365.113H213.024V196.092Z" fill="#40414D"/>
<path d="M439.637 196.092H429.261V365.113H439.637V196.092Z" fill="#40414D"/>
<path d="M198.686 182.335H438.415C442.87 182.335 447.142 184.346 450.292 187.924C453.442 191.503 455.212 196.357 455.212 201.418V203.951H181.89V201.418C181.89 196.357 183.659 191.503 186.809 187.924C189.959 184.346 194.231 182.335 198.686 182.335Z" fill="#DFE6F5"/>
<path opacity="0.1" d="M197.923 182.335H437.652C442.106 182.335 446.379 184.346 449.529 187.924C452.678 191.503 454.448 196.357 454.448 201.418V203.951H181.126V201.418C181.126 196.357 182.896 191.503 186.046 187.924C189.196 184.346 193.468 182.335 197.923 182.335Z" fill="black"/>
<path d="M198.686 178.397H438.415C442.87 178.397 447.142 180.408 450.292 183.986C453.442 187.565 455.212 192.419 455.212 197.48V200.013H181.89V197.48C181.89 192.419 183.659 187.565 186.809 183.986C189.959 180.408 194.231 178.397 198.686 178.397Z" fill="#DFE6F5"/>
<path d="M318.551 164.64C330.015 164.64 339.309 154.081 339.309 141.056C339.309 128.03 330.015 117.471 318.551 117.471C307.086 117.471 297.792 128.03 297.792 141.056C297.792 154.081 307.086 164.64 318.551 164.64Z" fill="#FFD77C" stroke="#FFAB50" stroke-miterlimit="10"/>
<path d="M318.551 159.748C327.637 159.748 335.003 151.379 335.003 141.056C335.003 130.732 327.637 122.363 318.551 122.363C309.464 122.363 302.098 130.732 302.098 141.056C302.098 151.379 309.464 159.748 318.551 159.748Z" fill="#FFD77C" stroke="#FFAB50" stroke-miterlimit="10"/>
<path d="M318.551 155.298C325.474 155.298 331.087 148.922 331.087 141.056C331.087 133.19 325.474 126.813 318.551 126.813C311.627 126.813 306.015 133.19 306.015 141.056C306.015 148.922 311.627 155.298 318.551 155.298Z" fill="#FFD77C" stroke="#FFAB50" stroke-miterlimit="10"/>
<path d="M318.551 149.062C322.443 149.062 325.597 145.477 325.597 141.056C325.597 136.634 322.443 133.05 318.551 133.05C314.659 133.05 311.504 136.634 311.504 141.056C311.504 145.477 314.659 149.062 318.551 149.062Z" fill="#FFD77C" stroke="#FFAB50" stroke-miterlimit="10"/>
<path d="M306.442 177.417C317.907 177.417 327.201 166.858 327.201 153.833C327.201 140.807 317.907 130.248 306.442 130.248C294.977 130.248 285.683 140.807 285.683 153.833C285.683 166.858 294.977 177.417 306.442 177.417Z" fill="#FFD77C" stroke="#FFAB50" stroke-miterlimit="10"/>
<path d="M306.442 172.525C315.529 172.525 322.895 164.156 322.895 153.833C322.895 143.509 315.529 135.14 306.442 135.14C297.355 135.14 289.989 143.509 289.989 153.833C289.989 164.156 297.355 172.525 306.442 172.525Z" fill="#FFD77C" stroke="#FFAB50" stroke-miterlimit="10"/>
<path d="M306.442 168.075C313.366 168.075 318.978 161.698 318.978 153.833C318.978 145.967 313.366 139.59 306.442 139.59C299.519 139.59 293.906 145.967 293.906 153.833C293.906 161.698 299.519 168.075 306.442 168.075Z" fill="#FFD77C" stroke="#FFAB50" stroke-miterlimit="10"/>
<path d="M306.442 161.839C310.334 161.839 313.489 158.254 313.489 153.833C313.489 149.411 310.334 145.826 306.442 145.826C302.55 145.826 299.395 149.411 299.395 153.833C299.395 158.254 302.55 161.839 306.442 161.839Z" fill="#FFD77C" stroke="#FFAB50" stroke-miterlimit="10"/>
<path d="M330.659 177.417C342.124 177.417 351.418 166.858 351.418 153.833C351.418 140.807 342.124 130.248 330.659 130.248C319.195 130.248 309.901 140.807 309.901 153.833C309.901 166.858 319.195 177.417 330.659 177.417Z" fill="#FFD77C" stroke="#FFAB50" stroke-miterlimit="10"/>
<path d="M330.659 172.525C339.746 172.525 347.112 164.156 347.112 153.833C347.112 143.509 339.746 135.14 330.659 135.14C321.573 135.14 314.207 143.509 314.207 153.833C314.207 164.156 321.573 172.525 330.659 172.525Z" fill="#FFD77C" stroke="#FFAB50" stroke-miterlimit="10"/>
<path d="M330.659 168.075C337.583 168.075 343.195 161.698 343.195 153.833C343.195 145.967 337.583 139.59 330.659 139.59C323.736 139.59 318.123 145.967 318.123 153.833C318.123 161.698 323.736 168.075 330.659 168.075Z" fill="#FFD77C" stroke="#FFAB50" stroke-miterlimit="10"/>
<path d="M330.659 161.839C334.551 161.839 337.706 158.254 337.706 153.833C337.706 149.411 334.551 145.826 330.659 145.826C326.767 145.826 323.613 149.411 323.613 153.833C323.613 158.254 326.767 161.839 330.659 161.839Z" fill="#FFD77C" stroke="#FFAB50" stroke-miterlimit="10"/>
<path d="M275.3 146.963H361.794V151.577C361.794 156.134 361.004 160.645 359.469 164.855C357.934 169.064 355.685 172.889 352.849 176.111C350.013 179.333 346.647 181.888 342.941 183.632C339.236 185.376 335.265 186.273 331.255 186.273H305.839C301.829 186.273 297.857 185.376 294.152 183.632C290.447 181.888 287.081 179.333 284.245 176.111C281.409 172.889 279.159 169.064 277.625 164.855C276.09 160.645 275.3 156.134 275.3 151.577V146.963Z" fill="#6C63FF"/>
<path opacity="0.1" d="M353.991 146.954C353.766 157.204 350.024 166.948 343.564 174.107C337.104 181.266 328.438 185.274 319.413 185.276H302.243C304.748 185.925 307.308 186.257 309.878 186.264H327.178C331.723 186.267 336.224 185.252 340.424 183.277C344.623 181.303 348.439 178.407 351.654 174.757C354.869 171.106 357.419 166.772 359.158 162.001C360.898 157.231 361.794 152.118 361.794 146.954H353.991Z" fill="black"/>
<path d="M434.453 336.61V324.822H209.566V336.61H434.453Z" fill="#40414D"/>
<path d="M125.248 283.655H116.17V377.49H125.248V283.655Z" fill="#40414D"/>
<path d="M196.945 283.655H187.868V377.49H196.945V283.655Z" fill="#40414D"/>
<path d="M204.214 268.19C204.214 274.452 185.524 279.535 162.467 279.535C139.41 279.535 121.629 274.461 121.629 268.19C121.629 261.919 139.41 256.844 162.467 256.844C185.524 256.844 204.214 261.953 204.214 268.19Z" fill="#F6C6CD"/>
<path d="M108.91 268.181H204.206V277.636C204.206 280.051 203.361 282.368 201.858 284.076C200.355 285.784 198.316 286.743 196.19 286.743H122.652C119.008 286.743 115.512 285.098 112.935 282.17C110.358 279.242 108.91 275.271 108.91 271.13V268.181Z" fill="#40414D"/>
<path d="M92.7268 159.688L94.6929 159.184C96.0755 158.829 97.5255 159.113 98.7238 159.973C99.9221 160.833 100.771 162.199 101.083 163.77L124.883 283.561L121.904 284.325C119.404 284.967 116.781 284.453 114.614 282.898C112.447 281.342 110.912 278.872 110.348 276.031L88.6755 166.951C88.5207 166.172 88.5028 165.366 88.6227 164.579C88.7426 163.792 88.9981 163.039 89.3744 162.365C89.7508 161.69 90.2406 161.106 90.8159 160.647C91.3911 160.187 92.0405 159.862 92.7268 159.688Z" fill="#40414D"/>
<path d="M513.373 379.156H522.45V285.321H513.373V379.156Z" fill="#40414D"/>
<path d="M441.675 379.156H450.753V285.321H441.675V379.156Z" fill="#40414D"/>
<path d="M434.422 269.855C434.422 276.118 453.112 281.201 476.169 281.201C499.226 281.201 517.007 276.127 517.007 269.855C517.007 263.584 499.218 258.484 476.169 258.484C453.12 258.484 434.422 263.593 434.422 269.855Z" fill="#F6C6CD"/>
<path d="M515.968 288.417H442.431C440.305 288.417 438.266 287.458 436.763 285.75C435.259 284.042 434.415 281.725 434.415 279.31V269.855H529.711V272.804C529.711 276.945 528.263 280.916 525.686 283.844C523.108 286.773 519.613 288.417 515.968 288.417Z" fill="#40414D"/>
<path d="M516.73 285.99L513.751 285.226L537.555 165.417C537.867 163.847 538.715 162.481 539.914 161.621C541.112 160.761 542.562 160.477 543.944 160.832L545.911 161.336C547.293 161.69 548.495 162.654 549.252 164.016C550.009 165.377 550.259 167.025 549.947 168.595L528.271 277.692C527.708 280.53 526.176 282.998 524.012 284.554C521.848 286.11 519.229 286.626 516.73 285.99Z" fill="#40414D"/>
<path d="M519.961 233.329L522.641 232.366C522.641 232.366 518.06 197.601 518.106 166.444C518.106 165.577 518.106 164.649 518.106 163.755C518.16 161.813 518.221 159.887 518.305 158.005C518.411 155.593 518.434 153.295 518.419 151.065C518.671 121.062 508.265 108.39 508.265 108.39C508.265 108.39 496.049 88.5957 488.728 84.7445C488.094 82.4893 487.369 79.5922 486.728 76.2267C486.964 76.0445 487.193 75.8623 487.415 75.6715C490.438 73.1232 493.332 70.3806 496.08 67.4573C499.836 63.4586 503.44 58.5839 503.241 53.0846C503.262 52.5491 503.247 52.0127 503.196 51.4799C502.501 44.8443 496.431 39.8481 493.98 33.5595C491.919 28.2771 492.538 22.3961 490.736 17.0356C488.934 11.6751 482.643 6.68761 477.894 9.50664C476.146 10.5475 475.092 12.3864 473.634 13.7829C470.015 17.2525 464.182 17.5734 459.235 15.9948C454.288 14.4161 452.822 7.98002 445.905 7.96268C446.519 8.19665 447.106 8.5141 447.653 8.90813C447.075 8.79754 446.491 8.73955 445.905 8.73467C447.312 9.24043 448.56 10.1986 449.497 11.4932C450.435 12.7879 451.022 14.3635 451.188 16.0295C451.177 16.2387 451.157 16.4472 451.127 16.654C448.363 18.3454 444.729 17.3826 441.416 17.3219C438.102 17.2612 434.331 19.1608 434.659 22.24C434.603 22.5899 434.603 22.9483 434.659 23.2982C435.094 25.6315 437.843 27.3923 438.179 29.5521C438.179 29.6129 438.179 29.6649 438.179 29.7256C432.047 33.2068 425.413 35.4046 418.596 36.2137C418.374 36.2137 418.473 36.5173 418.794 36.9597H418.596C417.351 37.1071 426.055 44.9224 427.047 45.4341C430.681 47.3077 435.025 48.6869 438.873 50.1268L439.209 50.2482C437.913 53.67 437.245 57.3566 437.247 61.082C437.247 74.4398 445.699 85.6639 457.143 88.8386C459.281 91.675 461.525 94.7889 463.572 97.8855H463.426C463.426 97.8855 450.272 117.766 450.692 147.457C450.655 151.178 450.828 154.899 451.211 158.594C442.752 158.048 424.574 155.515 410.747 144.014C392.096 128.513 371.291 133.162 375.628 142.461C379.964 151.759 402.173 159.505 405.754 160.286C406.09 160.355 406.869 160.563 407.983 160.876C403.571 161.821 400.547 163.478 400.73 165.707C401.089 169.966 420.1 183.532 431.575 184.304C439.156 184.816 448.279 187.47 455.479 189.803C456.174 207.628 452.379 212.971 452.379 212.971C452.379 212.971 453.509 213.761 455.38 214.88L454.578 217.482C449.921 220.535 444.179 223.719 438.957 225.002C432.303 226.556 425.834 229.001 419.687 232.288L393.859 246.47C391.553 247.686 389.557 249.55 388.061 251.886C386.565 254.221 385.617 256.952 385.308 259.819C384.743 265.83 386.339 273.342 394.981 279.301C395.516 284.185 398.142 289.883 405.036 295.105C418.397 305.202 453.509 335.448 458.288 339.576C458.38 346.958 457.525 361.764 449.508 364.072C439.461 366.969 447.546 377.95 455.67 377.516C457.597 378.345 459.695 378.52 461.709 378.019C470.321 375.695 501.882 363.274 504.035 344.694C504.125 343.889 504.166 343.077 504.157 342.265C504.283 339.098 503.587 335.958 502.157 333.236C502.494 334.075 502.767 334.946 502.974 335.838C500.363 329.072 494.003 324.822 489.056 322.428C489.056 322.367 489.056 322.298 489.056 322.237C488.293 321.899 487.529 321.621 486.903 321.37C486.916 320.867 486.883 320.364 486.804 319.869L437.308 281.123C437.308 281.123 458.83 260.973 481.07 264.078C503.31 267.184 506.853 262.595 506.853 262.595C506.853 262.595 518.259 250.269 519.404 236.079L520.122 235.862C520.122 235.862 520.068 234.969 519.961 233.329Z" fill="url(#paint0_linear)"/>
<path d="M459.518 334.251C459.518 334.251 461.541 359.553 451.417 362.623C441.294 365.694 450.745 377.959 458.838 375.634C466.931 373.31 496.637 361.062 498.661 342.673C500.684 324.284 478.413 318.135 478.413 318.135L459.518 334.251Z" fill="#B8616E"/>
<path opacity="0.05" d="M459.518 334.251C459.518 334.251 461.541 359.553 451.417 362.623C441.294 365.694 450.745 377.959 458.838 375.634C466.931 373.31 496.637 361.062 498.661 342.673C500.684 324.284 478.413 318.135 478.413 318.135L459.518 334.251Z" fill="black"/>
<path d="M463.587 335.014C463.587 335.014 465.61 360.316 455.486 363.387C445.363 366.457 454.815 378.722 462.907 376.397C471 374.073 500.707 361.825 502.73 343.436C504.753 325.048 482.483 318.898 482.483 318.898L463.587 335.014Z" fill="#B8616E"/>
<path opacity="0.1" d="M484.506 319.678L465.625 335.786C465.625 335.786 465.709 336.879 465.763 338.622C472.894 336.402 488.43 330.504 488.667 321.274C487.309 320.648 485.92 320.115 484.506 319.678Z" fill="black"/>
<path d="M472.695 99.2126H464.595V106.117H472.695V99.2126Z" fill="#F8BDC5"/>
<path d="M464.938 210.777C464.938 210.777 452.074 222.261 441.507 224.985C435.225 226.53 429.134 228.951 423.375 232.193L399.074 246.227C396.867 247.489 394.974 249.359 393.568 251.667C392.162 253.975 391.288 256.647 391.027 259.438C390.332 267.244 393.096 277.514 409.587 283.621L461.556 332.698L477.757 317.363L422.413 269.066L464.938 239.158V210.777Z" fill="#758AC8"/>
<path opacity="0.1" d="M464.938 210.777C464.938 210.777 452.074 222.261 441.507 224.985C435.225 226.53 429.134 228.951 423.375 232.193L399.074 246.227C396.867 247.489 394.974 249.359 393.568 251.667C392.162 253.975 391.288 256.647 391.027 259.438C390.332 267.244 393.096 277.514 409.587 283.621L461.556 332.698L477.757 317.363L422.413 269.066L464.938 239.158V210.777Z" fill="black"/>
<path d="M457.51 159.41C457.51 159.41 432.537 160.173 414.984 144.838C397.432 129.502 377.865 134.099 381.911 143.302C385.957 152.505 406.884 160.173 410.259 160.936C413.633 161.7 462.228 177.044 462.228 177.044L457.51 159.41Z" fill="#F8BDC5"/>
<path opacity="0.05" d="M457.51 159.41C457.51 159.41 432.537 160.173 414.984 144.838C397.432 129.502 377.865 134.099 381.911 143.302C385.957 152.505 406.884 160.173 410.259 160.936C413.633 161.7 462.228 177.044 462.228 177.044L457.51 159.41Z" fill="black"/>
<path d="M460.212 203.89L452.112 231.499C452.112 231.499 406.556 263.324 402.838 267.539C399.952 270.818 396.089 283.647 409.587 294.377C423.085 305.106 460.205 338.857 460.205 338.857C460.205 338.857 488.552 331.917 486.529 318.906L439.957 280.568C439.957 280.568 460.205 260.618 481.131 263.697C502.058 266.776 505.433 262.161 505.433 262.161C505.433 262.161 521.633 243.738 516.228 226.13C510.823 208.522 460.212 203.89 460.212 203.89Z" fill="#758AC8"/>
<path d="M450.089 78.9329C450.089 78.9329 473.039 107.305 471.687 115.737C470.336 124.168 489.911 91.1979 489.911 91.1979C489.911 91.1979 483.803 74.3271 485.185 55.9209L450.089 78.9329Z" fill="#F8BDC5"/>
<path opacity="0.1" d="M470.115 104.955C471.68 103.077 473.329 101.291 475.054 99.6029C478.508 96.3853 481.676 92.7917 484.514 88.8733C489.239 81.9341 506.784 111.877 506.784 111.877C506.784 111.877 517.579 125.677 516.236 158.655C514.892 191.634 517.923 235.723 517.923 235.723L513.838 237.016C510.398 238.32 506.738 238.697 503.147 238.118C499.556 237.538 496.133 236.018 493.148 233.676C487.758 229.443 480.933 225.002 475.741 224.603C465.618 223.84 456.502 217.317 456.502 217.317C456.502 217.317 460.892 205.434 454.143 167.086C447.394 128.739 464.595 101.485 464.595 101.485C464.595 101.485 465.954 109.83 470.115 104.955Z" fill="black"/>
<path d="M520.282 232.262L516.235 233.798L513.831 234.708C510.39 236.013 506.73 236.391 503.139 235.812C499.548 235.232 496.125 233.711 493.141 231.369C487.758 227.145 480.925 222.695 475.734 222.296C465.625 221.524 454.173 213.093 454.173 213.093C454.173 213.093 460.922 203.127 454.173 164.779C447.424 126.431 464.633 99.2126 464.633 99.2126C464.633 99.2126 465.992 107.514 470.153 102.63C471.715 100.754 473.361 98.9708 475.085 97.287C478.538 94.0694 481.706 90.4757 484.544 86.5573C489.27 79.6182 506.814 109.561 506.814 109.561C506.814 109.561 517.61 123.361 516.266 156.339C516.121 159.809 516.06 163.383 516.052 167C515.953 197.861 520.282 232.262 520.282 232.262Z" fill="#5E52AD"/>
<path opacity="0.1" d="M481.811 157.111L482.483 173.982C482.483 173.982 446.707 176.281 439.286 167.85C431.865 159.419 459.518 192.648 465.625 194.687C471.359 196.604 486.163 198.295 493.927 198.469C496.145 198.55 498.336 197.897 500.234 196.59C502.131 195.282 503.654 193.377 504.616 191.104C505.521 188.869 505.813 186.376 505.455 183.948C504.104 173.982 505.455 152.505 505.455 152.505L481.811 157.111Z" fill="black"/>
<path d="M481.811 155.576L482.483 172.447C482.483 172.447 446.707 174.745 439.286 166.314C431.865 157.883 405.014 159.748 405.54 166.314C405.876 170.53 423.764 183.948 434.552 184.72C445.34 185.492 459.518 191.113 465.625 193.152C471.359 195.068 486.163 196.76 493.927 196.933C496.145 197.014 498.336 196.362 500.234 195.054C502.131 193.747 503.654 191.841 504.616 189.569C505.521 187.333 505.813 184.84 505.455 182.413C504.104 172.447 505.455 150.97 505.455 150.97L481.811 155.576Z" fill="#F8BDC5"/>
<path opacity="0.1" d="M489.911 106.499C489.911 106.499 474.39 108.797 476.413 134.871C478.436 160.945 481.139 163.244 481.139 163.244C481.139 163.244 504.089 160.945 506.784 160.173C509.479 159.401 508.135 131.037 508.135 131.037C508.135 131.037 507.456 105.735 489.911 106.499Z" fill="black"/>
<path d="M489.911 105.735C489.911 105.735 474.39 108.034 476.413 134.108C478.436 160.182 481.139 162.48 481.139 162.48C481.139 162.48 504.089 160.182 506.784 159.41C509.479 158.638 508.135 130.274 508.135 130.274C508.135 130.274 507.456 104.955 489.911 105.735Z" fill="#5E52AD"/>
<path opacity="0.1" d="M484.17 72.3755C483.109 66.3037 485.285 64.4301 485.857 56.6582L450.738 79.6616C450.738 79.6616 454.761 84.6404 459.334 91.0331C461.378 91.6204 463.479 91.9119 465.587 91.9005C474.787 91.9439 479.818 80.7198 484.17 72.3755Z" fill="black"/>
<path d="M464.93 91.1632C478.723 91.1632 489.904 78.4604 489.904 62.7907C489.904 47.121 478.723 34.4182 464.93 34.4182C451.138 34.4182 439.957 47.121 439.957 62.7907C439.957 78.4604 451.138 91.1632 464.93 91.1632Z" fill="#F8BDC5"/>
<path opacity="0.1" d="M471.229 54.1775C467.412 56.9358 467.358 63.1723 469.817 67.492C472.275 71.8116 476.512 74.6653 480.589 77.3542C481.773 78.1349 483.078 78.9416 484.407 78.7681C485.428 78.542 486.374 77.9985 487.14 77.1981C489.993 74.669 492.715 71.9554 495.294 69.0706C499.004 64.9245 502.57 59.8155 501.989 54.03C501.333 47.4638 495.622 42.5197 493.316 36.3005C491.377 31.0961 491.957 25.2585 490.262 19.9414C488.568 14.6243 482.628 9.70614 478.184 12.4905C476.543 13.514 475.55 15.3442 474.176 16.7234C470.771 20.1409 465.282 20.4792 460.625 18.9179C455.967 17.3566 454.586 10.9812 448.088 10.9639C451.318 12.2563 453.501 16.0815 453.005 19.5684C450.402 21.2425 446.981 20.2884 443.844 20.2276C440.706 20.1669 436.972 22.1619 437.514 25.3713C437.988 27.9735 441.294 29.9078 440.805 32.51C435.07 35.9425 428.818 38.1199 422.375 38.9287C421.207 39.0761 429.391 46.8046 430.323 47.3164C433.735 49.1726 437.835 50.5344 441.446 51.9569C451.257 55.7995 461.304 57.17 471.229 54.1775Z" fill="black"/>
<path d="M471.229 53.4055C467.412 56.1638 467.358 62.4004 469.817 66.72C472.275 71.0396 476.512 73.8934 480.589 76.5823C481.773 77.363 483.078 78.1696 484.407 77.9962C485.428 77.77 486.374 77.2265 487.14 76.4261C489.993 73.8971 492.715 71.1834 495.294 68.2987C499.004 64.1525 502.57 59.0436 501.989 53.258C501.333 46.6919 495.622 41.7477 493.316 35.5285C491.377 30.3241 491.957 24.4866 490.262 19.1694C488.568 13.8523 482.628 8.93417 478.184 11.7185C476.543 12.742 475.55 14.5722 474.176 15.9514C470.771 19.3689 465.282 19.7072 460.625 18.1459C455.967 16.5846 454.586 10.2092 448.088 10.1919C451.318 11.4843 453.501 15.3095 453.005 18.7964C450.402 20.4705 446.981 19.5164 443.844 19.4557C440.706 19.3949 436.972 21.3899 437.514 24.5993C437.988 27.2015 441.294 29.1358 440.805 31.738C435.07 35.1705 428.818 37.3479 422.375 38.1567C421.207 38.3041 429.391 46.0326 430.323 46.5444C433.735 48.4006 437.835 49.7624 441.446 51.185C451.257 55.0362 461.304 56.3807 471.229 53.4055Z" fill="#916168"/>
<path opacity="0.1" d="M500.966 332.117C502.05 334.957 502.428 338.08 502.058 341.146C500.035 359.553 470.336 371.818 462.235 374.107C457.968 375.322 453.318 372.485 451.371 369.077C452.623 373.084 458.014 377.031 462.915 375.643C471.015 373.344 500.714 361.071 502.737 342.682C503.18 339.035 502.557 335.324 500.966 332.117Z" fill="white"/>
<path d="M286.47 353.03C285.867 351.486 282.736 348.476 267.643 347.825C257.305 347.383 253.786 341.181 252.831 335.127C256.229 334.624 258.886 333.93 259.756 332.967C259.756 332.967 259.71 332.689 259.634 332.195L259.756 332.091C259.096 327.724 258.751 323.303 258.725 318.872C258.706 315.08 259.059 311.298 259.779 307.596C260.199 305.148 260.376 302.655 260.306 300.162C260.39 285.416 255.832 259.499 255.832 259.499L255.206 237.961C255.143 235.274 254.444 232.656 253.182 230.381C251.921 228.107 250.143 226.261 248.037 225.037C246.537 224.155 244.877 223.686 243.189 223.666C243.189 223.666 219.262 219.382 197.724 217.048C196.197 215.652 190.815 211.887 178.477 214.047L171.377 190.437C171.32 190.151 171.279 189.861 171.255 189.569C171.507 186.568 173.27 182.049 181.493 181.763L183.211 183.497C183.211 183.497 183.516 182.812 184.028 181.763C194.228 181.633 249.793 180.991 252.656 181.763C255.809 182.63 283.431 175.639 284.225 174.771C294.96 162.879 252.656 168.648 252.656 168.648C248.495 169.42 235.05 168.5 221.277 167.225C228.095 155.611 234.508 116.188 234.508 116.188C234.508 116.188 258.939 102.196 251.869 94.3292C244.8 86.4619 223.461 111.816 223.461 111.816C223.461 111.816 214.78 140.674 210.833 149.417C209.306 152.887 207.329 153.598 205.565 153.199C206.367 152.471 206.886 152.037 206.886 152.037C206.886 152.037 189.525 136.294 187.944 130.179C187.65 129.177 187.261 128.214 186.784 127.308C185.952 121.765 184.493 116.309 180.936 112.675C180.338 111.946 179.678 111.286 178.966 110.706C178.004 109.925 176.912 109.248 176.004 108.398C176.515 105.727 177.111 102.951 177.729 100.262C190.616 98.5274 200.633 86.3839 200.633 71.6382C200.631 69.4145 200.398 67.1988 199.938 65.0373C201.864 65.1814 203.79 64.7571 205.529 63.8056C207.269 62.8542 208.762 61.408 209.863 59.6074C212.467 55.201 212.383 49.1986 210.199 44.5494C209.297 42.6618 208.114 40.9656 206.703 39.5358C204.453 36.9615 201.709 35.014 198.686 33.8457C196.067 32.8135 193.174 32.1977 191.097 30.1767C190.169 28.7978 189.325 27.3488 188.57 25.8397C187.699 24.358 186.673 23.0008 185.516 21.7976C181.699 17.3305 176.309 14.5809 170.82 13.3666C164.132 11.8833 157.222 12.4124 150.42 12.9415C147.877 13.141 144.892 13.6528 143.747 16.1682C142.884 18.0592 143.449 20.323 143.335 22.4308C142.976 29.1358 136.227 32.8396 130.356 34.4616C124.485 36.0836 117.484 37.4888 114.651 43.3697C112.078 48.6782 113.888 55.1143 114.712 61.0733C116.086 71.5364 114.041 82.2088 108.963 91.0765C106.383 95.5609 103.054 99.5509 101.016 104.365C98.7573 109.732 98.233 115.83 99.5345 121.591C99.9162 123.274 100.466 124.992 100.191 126.709C99.8787 128.125 99.2652 129.433 98.4046 130.517C94.8939 135.442 90.5247 139.489 85.5715 142.405C80.6183 145.32 75.1881 147.04 69.6218 147.457C70.0892 149.218 71.0027 150.784 72.2481 151.959C73.8304 153.737 75.6756 155.184 77.6993 156.235C83.0307 159.273 88.637 161.643 94.4193 163.304C98.3129 164.423 102.382 165.221 106.345 164.458C110.307 163.695 114.17 161.119 115.796 157.042C116.743 154.683 116.881 152.011 117.72 149.608C119.392 144.803 123.538 141.689 126.34 137.569C125.396 148.186 124.95 158.853 125.004 169.524C125.004 172.863 125.004 175.873 125.004 178.666C125.004 190.714 124.24 199.024 117.667 214.073C116.883 215.655 116.54 217.469 116.682 219.277C116.539 220.254 116.622 221.257 116.923 222.186C117.225 223.115 117.733 223.939 118.4 224.577C117.942 227.579 117.719 230.621 117.736 233.668C117.644 244.631 120.904 259.351 138.189 263.081L168.964 261.346C168.964 261.346 212.368 251.727 224.201 258.744C225.178 258.98 226.054 259.589 226.683 260.47C227.313 261.351 227.657 262.45 227.66 263.584C227.623 264.313 227.523 265.037 227.362 265.744C227.032 268.016 226.907 270.321 226.988 272.622C226.935 287.368 229.729 320.832 229.729 320.832V335.023C227.759 338.388 225.331 343.367 225.644 347.036C225.644 347.114 225.644 347.201 225.644 347.279C225.644 347.357 225.644 347.496 225.69 347.6C225.736 347.704 225.69 347.791 225.744 347.886C225.797 347.982 225.789 348.068 225.812 348.164C225.835 348.259 225.873 348.372 225.911 348.467C225.95 348.563 225.965 348.623 225.995 348.702C226.026 348.78 226.095 348.927 226.148 349.031L226.24 349.213C226.332 349.38 226.434 349.54 226.545 349.69C230.492 354.895 250.213 364.965 256.534 364.557C263.245 364.124 285.729 365.425 286.523 354.062C286.624 353.723 286.605 353.353 286.47 353.03Z" fill="url(#paint1_linear)"/>
<path d="M230.37 331.067C230.37 331.067 221.208 344.078 225.026 349.283C228.843 354.487 247.93 364.436 254.038 364.028C260.527 363.595 282.286 364.896 283.049 353.62C283.049 353.62 284.576 348.415 264.726 347.548C244.876 346.68 250.984 323.261 250.984 323.261L230.37 331.067Z" fill="#594C76"/>
<path opacity="0.1" d="M121.194 221.776C121.194 221.776 112.032 257.339 139.517 263.411L169.293 261.676C169.293 261.676 211.283 252.134 222.735 259.074C222.735 259.074 227.316 259.941 225.789 266.88C224.262 273.819 228.08 320.659 228.08 320.659V336.272C228.08 336.272 254.038 336.272 257.091 332.802C257.091 332.802 254.801 318.924 257.091 307.648C259.382 296.372 253.274 260.808 253.274 260.808L252.671 239.401C252.626 236.756 251.962 234.172 250.746 231.916C249.53 229.659 247.807 227.812 245.754 226.564C244.309 225.693 242.702 225.229 241.066 225.21C241.066 225.21 189.15 215.669 170.827 217.404C152.504 219.139 121.194 221.776 121.194 221.776Z" fill="black"/>
<path d="M121.194 220.908C121.194 220.908 112.032 256.471 139.517 262.543L169.293 260.808C169.293 260.808 211.283 251.267 222.735 258.206C222.735 258.206 227.316 259.074 225.789 266.013C224.262 272.952 228.08 319.791 228.08 319.791V335.404C228.08 335.404 254.038 335.404 257.091 331.935C257.091 331.935 254.801 318.056 257.091 306.78C259.382 295.504 253.274 259.941 253.274 259.941L252.671 238.534C252.626 235.889 251.962 233.305 250.746 231.048C249.53 228.792 247.807 226.945 245.754 225.696C244.309 224.826 242.702 224.362 241.066 224.343C241.066 224.343 189.15 214.802 170.827 216.537C152.504 218.271 121.194 220.908 121.194 220.908Z" fill="#8B9CD1"/>
<path d="M199.831 150.649C199.831 150.649 205.939 159.323 209.756 150.649C213.574 141.975 221.972 113.351 221.972 113.351C221.972 113.351 242.586 88.1967 249.457 96.0033C256.328 103.81 232.66 117.688 232.66 117.688C232.66 117.688 224.262 170.599 216.628 171.467C208.993 172.334 197.541 171.467 197.541 171.467L193.724 161.925L199.831 150.649Z" fill="#F8BDC5"/>
<path opacity="0.05" d="M199.831 150.649C199.831 150.649 205.939 159.323 209.756 150.649C213.574 141.975 221.972 113.351 221.972 113.351C221.972 113.351 242.586 88.1967 249.457 96.0033C256.328 103.81 232.66 117.688 232.66 117.688C232.66 117.688 224.262 170.599 216.628 171.467C208.993 172.334 197.541 171.467 197.541 171.467L193.724 161.925L199.831 150.649Z" fill="black"/>
<path d="M172.346 107.279C172.346 107.279 186.089 125.495 187.616 131.566C189.143 137.638 205.939 153.251 205.939 153.251C205.939 153.251 193.724 163.66 196.014 168.864C198.304 174.069 179.981 151.517 179.981 151.517L158.604 115.953L172.346 107.279Z" fill="#EB6475"/>
<path opacity="0.1" d="M172.346 107.279C172.346 107.279 186.089 125.495 187.616 131.566C189.143 137.638 205.939 153.251 205.939 153.251C205.939 153.251 193.724 163.66 196.014 168.864C198.304 174.069 179.981 151.517 179.981 151.517L158.604 115.953L172.346 107.279Z" fill="black"/>
<path d="M181.508 86.4619C181.508 86.4619 174.637 111.616 174.637 121.158C174.637 130.699 145.625 118.556 146.389 113.351C147.152 108.147 163.185 89.0641 163.948 81.2576C164.712 73.451 181.508 86.4619 181.508 86.4619Z" fill="#F8BDC5"/>
<path opacity="0.1" d="M158.604 103.81C158.604 103.81 131.883 96.0033 128.065 140.24C124.248 184.478 131.119 189.682 119.667 216.571C108.215 243.46 197.541 220.041 197.541 220.041C197.541 220.041 192.96 213.969 178.454 216.571L171.583 193.152C171.583 193.152 169.293 182.743 182.272 182.743C195.251 182.743 189.143 152.384 189.143 152.384C189.143 152.384 182.272 126.362 178.454 123.76C174.637 121.158 167.766 105.545 158.604 103.81Z" fill="black"/>
<path d="M158.604 102.075C158.604 102.075 131.883 94.2684 128.065 138.506C124.248 182.743 131.119 187.947 119.667 214.836C108.215 241.726 197.541 218.306 197.541 218.306C197.541 218.306 192.96 212.234 178.454 214.836L171.583 191.417C171.583 191.417 169.293 181.008 182.272 181.008C195.251 181.008 189.143 150.649 189.143 150.649C189.143 150.649 182.272 124.627 178.454 122.025C174.637 119.423 167.766 103.81 158.604 102.075Z" fill="#EB6475"/>
<path d="M185.325 164.527C185.325 164.527 241.059 171.467 250.22 169.732C250.22 169.732 291.142 164.007 280.759 175.804C279.996 176.671 253.274 183.61 250.22 182.743C247.166 181.875 182.272 182.743 182.272 182.743L181.508 174.069L185.325 164.527Z" fill="#F8BDC5"/>
<path opacity="0.1" d="M142.571 142.843L183.035 184.478C183.035 184.478 190.67 167.13 192.96 167.13C195.251 167.13 165.475 115.953 165.475 115.953C165.475 115.953 157.841 105.545 153.26 110.749C148.679 115.953 134.937 112.484 142.571 142.843Z" fill="black"/>
<path d="M141.808 141.108L182.272 182.743C182.272 182.743 189.906 165.395 192.197 165.395C194.487 165.395 164.712 114.219 164.712 114.219C164.712 114.219 157.077 103.81 152.496 109.014C147.915 114.219 134.173 110.749 141.808 141.108Z" fill="#EB6475"/>
<path d="M174.637 102.075C188.551 102.075 199.831 89.2596 199.831 73.451C199.831 57.6424 188.551 44.827 174.637 44.827C160.722 44.827 149.442 57.6424 149.442 73.451C149.442 89.2596 160.722 102.075 174.637 102.075Z" fill="#F8BDC5"/>
<path opacity="0.1" d="M196.701 66.2603C200.977 68.1773 206.214 65.8787 208.733 61.5157C211.253 57.1527 211.177 51.211 209.054 46.5791C206.932 41.9472 203.007 38.5817 198.679 36.8296C196.052 35.7714 193.128 35.1642 191.113 32.9784C189.838 31.5992 189.082 29.7343 188.127 28.0516C184.562 21.7369 178.202 18.0071 171.736 16.5412C165.269 15.0753 158.581 15.5958 152 16.1162C149.542 16.3157 146.656 16.8188 145.541 19.3169C144.709 21.1905 145.251 23.437 145.144 25.5274C144.801 32.1804 138.273 35.8668 132.57 37.4628C126.867 39.0588 120.255 40.5594 117.476 46.423C114.987 51.6881 116.766 58.0721 117.537 63.9877C118.856 74.3209 116.885 84.8495 111.979 93.6786C109.483 98.1284 106.268 102.084 104.291 106.863C102.104 112.204 101.597 118.236 102.856 123.951C103.23 125.625 103.756 127.325 103.497 129.025C103.198 130.422 102.606 131.717 101.771 132.798C98.4255 137.662 94.2185 141.675 89.4224 144.576C84.6263 147.478 79.3477 149.204 73.9278 149.643C74.7981 153.364 77.9665 155.715 80.9822 157.45C86.1281 160.457 91.5513 162.807 97.1525 164.458C100.916 165.568 104.856 166.358 108.689 165.603C112.521 164.848 116.254 162.29 117.85 158.248C118.766 155.906 118.904 153.26 119.713 150.866C121.538 145.497 126.401 142.253 129.012 137.317C131.509 132.599 132.478 132.044 133.112 126.596C133.746 121.149 135.143 115.268 139.082 112.067C143.205 108.711 149.007 109.352 153.588 111.929C158.169 114.505 161.001 113.499 164.826 117.28C171.536 123.903 179.046 129.4 187.127 133.605C186.364 126.041 185.135 117.601 179.729 113.1C178.202 111.807 176.271 110.818 175.461 108.841C174.171 105.692 176.378 101.85 175.377 98.5621C174.377 95.2747 170.575 94.0603 168.888 91.0765C167.453 88.5437 167.842 85.1001 169.186 82.4979C170.529 79.8957 172.652 77.9701 174.767 76.1486C176.645 74.5353 178.548 72.9595 180.477 71.4213C182.221 70.1646 183.786 68.6145 185.119 66.8241C185.883 65.6358 186.387 63.0336 187.448 62.1922C190.12 60.0931 194.228 65.1587 196.701 66.2603Z" fill="black"/>
<path d="M195.938 65.3929C200.213 67.3099 205.45 65.0113 207.97 60.6483C210.489 56.2853 210.413 50.3436 208.291 45.7117C206.168 41.0798 202.244 37.7143 197.915 35.9622C195.289 34.904 192.365 34.2968 190.349 32.111C189.074 30.7318 188.318 28.8669 187.364 27.1842C183.798 20.8695 177.439 17.1397 170.972 15.6738C164.506 14.2079 157.818 14.7283 151.237 15.2488C148.778 15.4483 145.892 15.9514 144.778 18.4495C143.945 20.323 144.488 22.5696 144.381 24.66C144.037 31.313 137.509 34.9994 131.806 36.5954C126.103 38.1914 119.492 39.692 116.713 45.5556C114.224 50.8207 116.002 57.2047 116.774 63.1203C118.092 73.4535 116.121 83.9821 111.216 92.8113C108.719 97.261 105.505 101.216 103.527 105.996C101.34 111.337 100.833 117.369 102.092 123.083C102.466 124.757 102.993 126.458 102.733 128.158C102.434 129.555 101.842 130.849 101.008 131.931C97.662 136.795 93.455 140.807 88.6589 143.709C83.8628 146.61 78.5842 148.336 73.1643 148.776C74.0346 152.497 77.203 154.847 80.2187 156.582C85.3646 159.589 90.7878 161.94 96.389 163.591C100.153 164.701 104.092 165.49 107.925 164.736C111.758 163.981 115.491 161.422 117.087 157.38C118.003 155.038 118.14 152.393 118.949 149.999C120.774 144.629 125.637 141.385 128.249 136.45C130.745 131.731 131.715 131.176 132.348 125.729C132.982 120.282 134.379 114.401 138.319 111.2C142.441 107.843 148.244 108.485 152.825 111.061C157.405 113.637 160.238 112.631 164.063 116.413C170.773 123.036 178.283 128.533 186.364 132.737C185.6 125.174 184.371 116.734 178.966 112.232C177.439 110.94 175.507 109.951 174.698 107.973C173.408 104.825 175.614 100.982 174.614 97.6947C173.614 94.4073 169.812 93.1929 168.124 90.2091C166.689 87.6763 167.079 84.2327 168.422 81.6305C169.766 79.0284 171.888 77.1028 174.003 75.2812C175.881 73.6679 177.785 72.0921 179.714 70.5539C181.457 69.2972 183.022 67.7472 184.356 65.9567C185.119 64.7684 185.623 62.1662 186.684 61.3248C189.357 59.2257 193.464 64.2913 195.938 65.3929Z" fill="#916168"/>
<g opacity="0.1">
<path opacity="0.1" d="M250.113 330.096C250.171 327.787 250.463 325.493 250.984 323.261L250.602 323.408C250.221 325.61 250.057 327.853 250.113 330.096Z" fill="white"/>
<path opacity="0.1" d="M254.038 362.294C247.93 362.701 228.843 352.752 225.026 347.548C224.524 346.843 224.217 345.986 224.14 345.084C224.028 345.816 224.049 346.566 224.201 347.287C224.354 348.009 224.634 348.688 225.026 349.283C228.843 354.487 247.93 364.436 254.038 364.028C260.527 363.595 282.286 364.896 283.049 353.62C283.106 353.308 283.069 352.984 282.943 352.7C281.194 363.092 260.367 361.869 254.038 362.294Z" fill="white"/>
</g>
<path d="M284.958 103.376H284.195V138.939H284.958V103.376Z" fill="#FFD77C" stroke="#FFAB50" stroke-width="0.25" stroke-miterlimit="10"/>
<path d="M285.722 103.376H284.958V138.939H285.722V103.376Z" fill="#FFD77C" stroke="#FFAB50" stroke-width="0.25" stroke-miterlimit="10"/>
<path d="M286.485 103.376H285.722V138.939H286.485V103.376Z" fill="#FFD77C" stroke="#FFAB50" stroke-width="0.25" stroke-miterlimit="10"/>
<path d="M287.248 103.376H286.485V138.939H287.248V103.376Z" fill="#FFD77C" stroke="#FFAB50" stroke-width="0.25" stroke-miterlimit="10"/>
<path d="M288.012 103.376H287.248V138.939H288.012V103.376Z" fill="#FFD77C" stroke="#FFAB50" stroke-width="0.25" stroke-miterlimit="10"/>
<path d="M288.775 103.376H288.012V138.939H288.775V103.376Z" fill="#FFD77C" stroke="#FFAB50" stroke-width="0.25" stroke-miterlimit="10"/>
<path d="M289.539 103.376H288.775V138.939H289.539V103.376Z" fill="#FFD77C" stroke="#FFAB50" stroke-width="0.25" stroke-miterlimit="10"/>
<defs>
<linearGradient id="paint0_linear" x1="448.829" y1="378.34" x2="448.829" y2="7.96268" gradientUnits="userSpaceOnUse">
<stop stop-color="#808080" stop-opacity="0.25"/>
<stop offset="0.54" stop-color="#808080" stop-opacity="0.12"/>
<stop offset="1" stop-color="#808080" stop-opacity="0.1"/>
</linearGradient>
<linearGradient id="paint1_linear" x1="82824.5" y1="252934" x2="82824.5" y2="109953" gradientUnits="userSpaceOnUse">
<stop stop-color="#808080" stop-opacity="0.25"/>
<stop offset="0.54" stop-color="#808080" stop-opacity="0.12"/>
<stop offset="1" stop-color="#808080" stop-opacity="0.1"/>
</linearGradient>
</defs>
</svg>
