<svg width="388" height="685" viewBox="0 0 388 685" fill="none" xmlns="http://www.w3.org/2000/svg">
<ellipse cx="194" cy="668" rx="194" ry="17" fill="#C4C4C4"/>
<path d="M317.943 222.655C316.154 219.754 306.701 201.726 306.701 201.726L290.86 167.329C290.86 167.329 279.618 152.824 279.618 150.13C279.618 147.436 259.178 136.661 259.178 136.661C259.178 136.661 242.571 132.517 241.294 132.103C240.016 131.688 220.343 126.234 220.343 126.234C220.343 126.234 212.596 117.697 211.492 119.927L211.492 119.933C211.451 119.876 211.41 119.827 211.37 119.77C209.787 117.291 208.785 114.582 208.416 111.788C208.374 111.539 208.338 111.277 208.301 111.019C213.403 108.12 217.586 104.223 220.485 99.6647C223.385 95.1062 224.915 90.024 224.942 84.8584C224.938 83.4984 224.829 82.1401 224.615 80.792C224.755 80.7185 224.902 80.6537 225.054 80.5981C225.372 80.4824 225.292 80.3883 225.058 80.29C225.138 80.2549 225.218 80.2175 225.298 80.1889C225.722 80.0348 225.439 79.9182 225.03 79.7797L225.054 79.7693C225.631 79.5594 224.902 79.4204 224.316 79.1985C224.285 79.0551 224.255 78.9112 224.221 78.7684C224.351 78.4955 224.43 78.2076 224.456 77.9146C224.508 77.9362 224.556 77.9596 224.61 77.9797C224.753 77.4457 224.749 76.8916 224.6 76.3589C224.563 76.4671 224.519 76.5734 224.467 76.6773C224.504 76.1943 224.385 75.7119 224.123 75.2805C223.862 74.8491 223.467 74.4843 222.98 74.2243C222.95 74.2028 222.918 74.1798 222.888 74.1581L223.972 64.8621C239.949 64.2293 242.752 41.4503 239.108 40.1848C235.464 38.9193 239.108 36.1774 239.108 30.6935C239.108 25.2097 227.055 19.0931 227.055 19.0931C227.055 19.0931 222.01 21.2023 214.161 10.6565C206.313 0.110615 177.442 -1.57672 175.48 1.16519C173.518 3.90709 160.624 7.49273 143.806 11.5001C126.988 15.5075 130.071 32.17 132.874 35.7556C135.183 38.7199 136.535 42.1355 136.798 45.6687C136.798 47.7778 142.124 56.6362 142.124 56.6362C140.444 59.7059 144.719 76.5219 145.985 81.3012C145.965 81.4481 145.944 81.5945 145.926 81.742C145.916 81.7565 145.901 81.7687 145.891 81.7834C145.831 81.8606 145.776 81.9409 145.727 82.0237C145.456 82.519 145.366 83.0708 145.469 83.609C145.377 84.1973 145.475 84.7956 145.753 85.3413C145.849 89.844 147.092 94.2775 149.399 98.3449C151.706 102.412 155.023 106.02 159.129 108.925C159.149 109.213 159.168 109.502 159.187 109.798C159.422 113.702 159.555 118.319 159.31 122.737C159.297 122.963 159.277 123.184 159.262 123.409C158.335 123.566 157.465 123.904 156.723 124.395C155.98 124.885 155.385 125.516 154.987 126.235C153.403 128.787 144.205 132.724 144.205 132.724C144.205 132.724 128.108 133.346 126.575 135.833C125.043 138.319 101.792 146.608 101.792 146.608C101.792 146.608 89.5284 152.617 91.3168 159.455C92.2513 163.028 89.6279 168.579 86.9098 173.067C81.2244 171.261 75.304 170.023 69.272 169.382L82.2972 179.824C82.0243 180.181 81.8635 180.383 81.8635 180.383L74.4541 202.348C74.4541 202.348 71.8991 210.015 69.3441 211.879C66.7892 213.744 71.6436 230.736 71.6436 230.736C71.6436 230.736 68.8331 242.754 66.5336 245.862C64.2342 248.971 70.1106 256.637 70.1106 256.637L81.8635 279.016L113.034 285.647C113.034 285.647 115.111 286.015 118.468 286.618C118.362 287.153 118.254 287.685 118.144 288.216C116.642 295.345 114.669 301.901 112.268 303.674C106.391 308.026 106.647 327.504 106.647 327.504L106.902 355.063C106.902 355.063 108.946 389.046 107.924 390.289C107.279 391.074 108.574 392.354 111.989 393.504C111.891 394.015 111.796 394.534 111.705 395.063C110.745 400.699 110.316 407.131 112.523 409.974C113.482 411.512 114.006 413.213 114.056 414.947C114.056 417.641 118.911 423.236 118.911 423.236C118.911 423.236 115.078 446.236 121.465 454.11C127.853 461.984 133.218 476.282 130.152 479.598C130.152 479.598 124.787 489.337 127.342 493.688C129.897 498.039 127.342 500.526 124.02 501.562C120.699 502.598 120.985 511.094 120.985 511.094L127.086 551.5C127.086 551.5 130.408 559.789 127.597 562.69C124.787 565.591 124.787 580.095 129.13 585.069C133.474 590.042 122.999 599.159 122.999 599.159C122.999 599.159 116.611 606.826 126.831 609.312C126.831 609.312 128.875 609.727 125.042 613.042C121.21 616.358 120.444 620.502 122.998 621.952C123.528 622.219 124.082 622.449 124.656 622.642C124.561 623.133 124.458 623.642 124.337 624.182C123.356 628.508 121.506 634.145 118.144 636.872C111.627 642.467 106.004 648.747 101.414 655.554C97.9086 661.124 96.3756 666.337 100.259 668.782C109.457 674.584 121.21 676.449 128.108 674.17C135.007 671.89 144.716 664.845 144.716 664.845L147.015 656.764C147.015 656.764 145.482 651.791 153.147 649.926C160.812 648.061 167.966 641.43 167.966 641.43V630.689C169.822 629.8 171.613 628.82 173.331 627.754C173.331 627.754 176.908 617.186 173.331 613.664C169.754 610.141 168.477 608.898 173.076 606.619C177.675 604.339 178.298 599.366 174.926 595.015C171.543 590.663 166.177 584.24 170.776 575.122C175.375 566.005 177.062 538.031 177.062 538.031C177.062 538.031 174.916 518.968 177.062 514.617C179.208 510.265 174.609 501.562 174.609 501.562C174.609 501.562 176.142 490.787 178.952 485.814C181.763 480.841 184.062 454.525 184.062 454.525C184.062 454.525 189.172 443.336 189.172 436.083C189.172 428.831 181.252 411.425 193.005 406.866C193.005 406.866 198.115 410.596 196.071 425.515C196.071 425.515 201.947 442.921 201.947 448.309C201.947 453.696 206.29 473.174 206.29 473.174C206.29 473.174 206.802 479.39 208.59 481.67C210.378 483.949 208.59 490.166 208.59 490.166C208.59 490.166 215.233 495.346 213.444 498.661C211.656 501.977 213.751 509.453 213.751 509.453L212.167 555.852C212.167 555.852 207.568 575.744 218.299 587.763C218.299 587.763 214.466 605.375 212.167 606.619C209.867 607.862 220.598 618.637 220.598 618.637C220.598 618.637 217.624 625.617 223.664 625.96V637.493C225.761 640.599 228.638 643.285 232.096 645.367C237.717 648.683 235.417 660.079 235.417 660.079C235.417 660.079 242.571 674.584 261.478 671.476C280.385 668.368 282.94 666.917 281.918 661.737C281.55 659.847 280.732 656.474 279.557 652.645C277.523 645.989 274.406 637.958 270.676 633.996C264.799 627.754 259.945 614.7 259.945 614.7C259.945 614.7 257.645 610.349 259.945 608.898C262.244 607.448 261.222 604.754 261.222 604.754C261.222 604.754 263.46 599.366 261.447 596.051C259.434 592.736 265.31 585.898 265.31 585.898L263.522 553.987L265.31 507.571C265.31 507.571 257.39 499.905 260.711 495.346C264.033 490.787 256.879 484.364 256.879 484.364C256.879 484.364 256.112 484.156 258.156 478.976C259.38 475.923 259.197 472.598 257.645 469.652C257.645 469.652 253.302 456.805 260.967 447.066C260.967 447.066 264.288 434.218 265.31 427.588C266.015 422.979 270.431 405.764 273.057 395.693C273.206 395.124 273.348 394.579 273.484 394.059C277.267 394.232 280.129 394.434 280.129 394.434C280.129 394.434 274.253 360.244 280.129 353.198C286.006 346.153 275.53 292.278 275.53 292.278C275.53 292.278 273.026 282.862 271.483 273.256C271.395 272.709 271.315 272.162 271.233 271.615C275.977 271.297 280.739 271.208 285.495 271.35C297.758 271.971 309.767 268.034 310.022 264.097C310.278 260.16 316.921 244.619 317.943 241.097C318.965 237.574 319.731 225.555 317.943 222.655Z" fill="url(#paint0_linear)"/>
<path d="M168.86 622.39V641.577C168.86 641.577 161.967 648.179 154.581 650.036C147.195 651.893 148.672 656.844 148.672 656.844L146.457 664.89C146.457 664.89 137.102 671.904 130.455 674.174C123.807 676.443 112.483 674.587 103.62 668.81C99.8778 666.375 101.355 661.185 104.733 655.639C109.133 648.886 114.551 642.634 120.853 637.038C124.093 634.323 125.875 628.712 126.821 624.404C127.52 621.177 127.746 618.677 127.746 618.677L168.86 622.39Z" fill="#4C495A"/>
<path opacity="0.1" d="M168.86 636.708V641.577C168.86 641.577 161.967 648.179 154.581 650.036C147.195 651.893 148.672 656.844 148.672 656.844L146.457 664.89C146.457 664.89 137.102 671.905 130.455 674.174C123.807 676.443 112.483 674.587 103.62 668.81C99.8778 666.376 101.355 661.185 104.733 655.639C104.575 661.465 106.633 668.009 116.668 667.778C127.498 667.49 137.935 664.31 146.457 658.701C146.457 658.701 146.211 645.084 157.535 641.99C161.675 640.845 165.517 639.053 168.86 636.708Z" fill="black"/>
<path d="M258.965 671.492C240.747 674.587 233.854 660.145 233.854 660.145C233.854 660.145 236.069 648.798 230.653 645.497C227.304 643.404 224.533 640.73 222.529 637.657V618.677L244.686 605.473L256.68 614.369L257.488 614.963C257.488 614.963 262.165 627.961 267.828 634.175C271.422 638.119 274.426 646.116 276.385 652.743C277.518 656.555 278.306 659.914 278.66 661.795C279.645 666.953 277.183 668.397 258.965 671.492Z" fill="#4C495A"/>
<path opacity="0.1" d="M258.965 671.492C240.747 674.587 233.854 660.145 233.854 660.145C233.854 660.145 236.069 648.798 230.653 645.497C227.304 643.404 224.533 640.73 222.529 637.657V630.304C226.045 633.416 232.672 639.44 234.1 641.99C236.069 645.497 236.316 658.288 245.425 660.558C254.534 662.827 272.259 664.89 273.736 659.113C274.35 656.918 275.238 654.783 276.385 652.743C277.518 656.555 278.306 659.914 278.66 661.795C279.645 666.953 277.183 668.397 258.965 671.492Z" fill="black"/>
<path opacity="0.1" d="M127.746 618.677L168.86 622.39V632.533C164.222 634.835 157.575 637.278 153.843 634.769C148.328 631.072 131.932 626.376 126.821 624.404C127.52 621.177 127.746 618.677 127.746 618.677Z" fill="black"/>
<path opacity="0.1" d="M257.488 616.614C251.826 614.963 241.732 622.184 228.438 626.723C226.59 627.452 224.572 627.83 222.529 627.829V618.677L244.686 605.473L256.68 614.369C256.865 615.137 257.136 615.888 257.488 616.614Z" fill="black"/>
<path d="M272.013 389.468C272.013 389.468 271.235 392.505 270.122 396.911C267.591 406.938 263.337 424.078 262.658 428.667C261.673 435.268 258.472 448.06 258.472 448.06C251.087 457.756 255.272 470.547 255.272 470.547C256.769 473.49 256.944 476.788 255.764 479.831C253.795 484.989 254.533 485.195 254.533 485.195C254.533 485.195 261.427 491.591 258.226 496.13C255.026 500.668 262.658 508.302 262.658 508.302L260.934 554.515L262.658 586.286C262.658 586.286 256.995 593.095 258.935 596.396C260.875 599.697 258.719 605.061 258.719 605.061C258.719 605.061 259.703 607.743 257.488 609.187C255.272 610.631 257.488 614.963 257.488 614.963C251.825 613.313 241.732 620.534 228.437 625.073C215.143 629.611 219.575 618.883 219.575 618.883C219.575 618.883 209.235 608.155 211.45 606.917C213.666 605.68 217.359 588.143 217.359 588.143C207.019 576.177 211.45 556.372 211.45 556.372L212.977 510.175C212.977 510.175 210.958 502.731 212.681 499.43C214.405 496.13 208.004 490.972 208.004 490.972C208.004 490.972 209.727 484.783 208.004 482.513C206.28 480.244 205.788 474.055 205.788 474.055C205.788 474.055 201.603 454.662 201.603 449.297C201.603 443.933 195.941 426.604 195.941 426.604C197.91 411.749 192.986 408.036 192.986 408.036C181.662 412.575 189.293 429.904 189.293 437.125C189.293 444.346 184.37 455.487 184.37 455.487C184.37 455.487 182.154 481.688 179.446 486.639C176.738 491.591 175.261 502.319 175.261 502.319C175.261 502.319 179.692 510.984 177.624 515.316C175.556 519.649 177.624 538.629 177.624 538.629C177.624 538.629 175.999 566.481 171.568 575.558C167.136 584.636 172.306 591.032 175.566 595.364C178.816 599.697 178.215 604.648 173.784 606.917C169.352 609.187 170.583 610.425 174.03 613.932C177.476 617.439 174.03 627.961 174.03 627.961C174.03 627.961 159.997 637.245 153.842 633.119C147.688 628.992 127.992 623.628 125.531 622.184C123.069 620.74 123.807 616.614 127.5 613.313C131.193 610.012 129.223 609.599 129.223 609.599C119.376 607.124 125.531 599.49 125.531 599.49C125.531 599.49 135.624 590.413 131.439 585.461C127.254 580.51 127.254 566.068 129.962 563.18C132.67 560.292 129.47 552.039 129.47 552.039L123.591 511.809C123.591 511.809 123.315 503.35 126.515 502.319C129.716 501.287 132.178 498.812 129.716 494.479C127.254 490.147 132.424 480.45 132.424 480.45C135.378 477.149 130.208 462.914 124.053 455.074C117.899 447.234 121.592 424.334 121.592 424.334C121.592 424.334 116.914 418.764 116.914 416.082C116.868 414.36 116.363 412.668 115.437 411.13C113.31 408.3 113.723 401.896 114.649 396.284C115.545 390.854 116.914 386.167 116.914 386.167L272.013 389.468Z" fill="#5F5D7E"/>
<path d="M223.76 155.72L175.261 165.21C175.261 165.21 151.381 148.293 157.289 139.215C159.318 136.096 160.214 130.773 160.519 125.145C160.756 120.747 160.627 116.15 160.401 112.263C160.056 106.643 159.505 102.492 159.505 102.492C159.505 102.492 209.235 78.9732 207.512 102.492C207.161 106.409 207.27 110.345 207.837 114.244C208.188 117.018 209.153 119.713 210.682 122.191C213.341 126.16 216.621 126.218 216.621 126.218L223.76 155.72Z" fill="#FDC2CC"/>
<path opacity="0.1" d="M207.837 114.244C200.828 118.457 192.321 120.555 183.706 120.195C175.091 119.836 166.876 117.039 160.401 112.263C160.056 106.643 159.505 102.492 159.505 102.492C159.505 102.492 209.235 78.9732 207.512 102.492C207.161 106.409 207.27 110.345 207.837 114.244Z" fill="black"/>
<path d="M185.601 119.41C206.676 119.41 223.76 105.093 223.76 87.4319C223.76 69.771 206.676 55.454 185.601 55.454C164.526 55.454 147.442 69.771 147.442 87.4319C147.442 105.093 164.526 119.41 185.601 119.41Z" fill="#FDC2CC"/>
<path opacity="0.1" d="M223.76 155.72L175.261 165.21C175.261 165.21 151.381 148.293 157.289 139.215C159.318 136.096 160.214 130.773 160.519 125.145C161.59 130.039 164.725 134.447 169.352 137.565C180.431 143.754 178.708 151.388 178.708 151.388L198.649 150.769C197.418 143.96 204.804 140.247 207.265 139.422C209.727 138.596 208.496 134.883 208.496 134.883L210.682 122.191C213.341 126.16 216.621 126.218 216.621 126.218L223.76 155.72Z" fill="black"/>
<path opacity="0.1" d="M272.013 389.468C272.013 389.468 271.235 392.505 270.122 396.911C264.765 396.672 257.685 396.499 254.534 397.101C249.117 398.133 227.453 398.545 227.453 398.545L173.784 400.138V398.752C167.61 398.793 161.445 399.138 155.32 399.783C146.211 400.815 131.932 399.371 122.823 398.133C120.019 397.796 117.274 397.175 114.649 396.284C115.545 390.854 116.914 386.167 116.914 386.167L272.013 389.468Z" fill="black"/>
<path d="M267.828 258.462C267.05 262.316 267.621 268.703 268.606 275.008C270.093 284.572 272.505 293.947 272.505 293.947C272.505 293.947 282.599 347.587 276.937 354.602C271.274 361.616 276.937 395.657 276.937 395.657C276.937 395.657 259.95 394.419 254.534 395.451C249.117 396.482 227.453 396.895 227.453 396.895L173.784 398.488V397.101C167.61 397.143 161.445 397.487 155.32 398.133C146.211 399.164 131.932 397.72 122.823 396.482C113.714 395.244 110.021 392.769 111.006 391.531C111.99 390.293 110.021 356.458 110.021 356.458L109.775 329.019C109.775 329.019 109.529 309.626 115.191 305.294C117.505 303.528 119.406 297 120.853 289.903C122.931 279.629 124.054 268.158 124.054 268.158L86.6329 184.191L85.8944 182.54C85.8944 182.54 96.7267 168.511 95.0034 161.703C93.2801 154.895 105.097 148.912 105.097 148.912C105.097 148.912 127.5 140.66 128.977 138.184C130.455 135.708 145.964 135.089 145.964 135.089C145.964 135.089 154.827 131.169 156.354 128.628C156.725 127.918 157.293 127.292 158.011 126.803C158.728 126.313 159.575 125.974 160.48 125.814C161.523 130.768 164.675 135.236 169.352 138.39C180.431 144.579 178.707 152.213 178.707 152.213L198.649 151.594C197.418 144.786 204.804 141.072 207.265 140.247C209.727 139.422 208.496 135.708 208.496 135.708L210.801 122.348C211.864 120.128 219.329 128.628 219.329 128.628C219.329 128.628 238.285 134.058 239.516 134.47C240.747 134.883 256.749 139.009 256.749 139.009C256.749 139.009 276.444 149.737 276.444 152.419C276.444 155.101 287.277 169.543 287.277 169.543C287.277 169.543 287.149 170.12 286.912 171.177C284.411 182.548 269.63 249.591 267.828 258.462Z" fill="#6C63FF"/>
<path d="M189.047 225.04C189.047 225.04 146.457 215.55 142.272 213.28C138.086 211.011 113.468 224.215 143.503 242.163C143.503 242.163 180.23 248.559 190.055 242.163C199.88 235.768 189.047 225.04 189.047 225.04Z" fill="#FDC2CC"/>
<path opacity="0.1" d="M281.122 168.511L286.292 168.718L301.555 202.965C301.555 202.965 310.664 220.914 312.388 223.802C314.111 226.69 313.372 238.656 312.388 242.163C311.403 245.671 305.002 261.144 304.756 265.064C304.51 268.984 292.939 272.903 281.122 272.285C269.305 271.666 241.732 274.76 241.732 274.76C241.732 274.76 212.284 272.181 194.217 279.918C194.217 279.918 182.646 259.906 183.877 222.564C183.877 222.564 204.311 221.533 209.481 223.183C214.651 224.833 239.762 229.579 242.963 227.103C246.163 224.627 260.688 231.642 260.688 231.642C261.427 230.281 261.81 228.804 261.81 227.309C261.81 225.814 261.427 224.337 260.688 222.977C258.226 218.025 254.041 202.552 259.457 197.601C264.873 192.649 281.122 168.511 281.122 168.511Z" fill="black"/>
<path opacity="0.1" d="M268.606 275.008C256.385 275.701 242.717 277.236 242.717 277.236C242.717 277.236 213.272 274.653 195.202 282.394C195.202 282.394 183.631 262.382 184.862 225.04C184.862 225.04 205.296 224.008 210.466 225.659C215.636 227.309 240.747 232.054 243.947 229.579C247.148 227.103 261.673 234.117 261.673 234.117C262.412 232.757 262.795 231.28 262.795 229.785C262.795 228.29 262.412 226.813 261.673 225.452C259.211 220.501 255.026 205.028 260.442 200.076C265.858 195.125 282.107 170.987 282.107 170.987L286.912 171.177C284.411 182.548 269.63 249.591 267.828 258.462C267.05 262.316 267.621 268.703 268.606 275.008Z" fill="black"/>
<path d="M282.107 169.336L287.277 169.543L302.54 203.79C302.54 203.79 311.649 221.739 313.373 224.627C315.096 227.516 314.357 239.481 313.373 242.989C312.388 246.496 305.987 261.969 305.741 265.889C305.495 269.809 293.924 273.729 282.107 273.11C270.29 272.491 242.717 275.585 242.717 275.585C242.717 275.585 213.269 273.006 195.202 280.743C195.202 280.743 183.631 260.731 184.862 223.389C184.862 223.389 205.296 222.358 210.466 224.008C215.636 225.659 240.747 230.404 243.947 227.928C247.148 225.452 261.673 232.467 261.673 232.467C262.412 231.107 262.795 229.629 262.795 228.134C262.795 226.64 262.412 225.162 261.673 223.802C259.211 218.851 255.026 203.377 260.442 198.426C265.858 193.475 282.107 169.336 282.107 169.336Z" fill="#6C63FF"/>
<path d="M230.094 245.116L236.237 248.304L270.469 201.973L264.326 198.786L230.094 245.116Z" fill="#DFE6F5"/>
<path d="M288.022 195.699C294.072 187.511 293.421 177.99 286.568 174.434C279.715 170.878 269.255 174.633 263.205 182.821C257.155 191.009 257.806 200.53 264.659 204.086C271.512 207.642 281.972 203.887 288.022 195.699Z" fill="#DFE6F5"/>
<path opacity="0.1" d="M284.52 193.882C288.863 188.004 288.396 181.171 283.477 178.618C278.557 176.066 271.049 178.761 266.707 184.638C262.364 190.516 262.831 197.35 267.75 199.902C272.67 202.454 280.178 199.759 284.52 193.882Z" fill="black"/>
<path d="M212.597 268.796L218.74 271.984L240.04 243.156L233.898 239.968L212.597 268.796Z" fill="#53526B"/>
<path d="M176.492 270.84L191.509 267.333C191.509 267.333 265.612 268.984 240.747 243.401C240.747 243.401 227.699 232.88 200.372 241.338C173.045 249.797 165.413 250.828 165.413 250.828L176.492 270.84Z" fill="#FDC2CC"/>
<path opacity="0.1" d="M165.413 162.941C167.045 162.941 168.367 161.832 168.367 160.465C168.367 159.098 167.045 157.989 165.413 157.989C163.782 157.989 162.459 159.098 162.459 160.465C162.459 161.832 163.782 162.941 165.413 162.941Z" fill="black"/>
<path opacity="0.1" d="M216.128 161.497C217.76 161.497 219.082 160.388 219.082 159.021C219.082 157.654 217.76 156.545 216.128 156.545C214.497 156.545 213.174 157.654 213.174 159.021C213.174 160.388 214.497 161.497 216.128 161.497Z" fill="black"/>
<path d="M165.413 162.116C167.045 162.116 168.367 161.007 168.367 159.64C168.367 158.273 167.045 157.164 165.413 157.164C163.782 157.164 162.459 158.273 162.459 159.64C162.459 161.007 163.782 162.116 165.413 162.116Z" fill="white"/>
<path opacity="0.1" d="M169.599 197.188C171.23 197.188 172.553 196.08 172.553 194.712C172.553 193.345 171.23 192.237 169.599 192.237C167.967 192.237 166.644 193.345 166.644 194.712C166.644 196.08 167.967 197.188 169.599 197.188Z" fill="black"/>
<path opacity="0.1" d="M217.605 194.712C219.237 194.712 220.56 193.604 220.56 192.237C220.56 190.869 219.237 189.761 217.605 189.761C215.974 189.761 214.651 190.869 214.651 192.237C214.651 193.604 215.974 194.712 217.605 194.712Z" fill="black"/>
<path d="M169.599 196.363C171.23 196.363 172.553 195.254 172.553 193.887C172.553 192.52 171.23 191.411 169.599 191.411C167.967 191.411 166.644 192.52 166.644 193.887C166.644 195.254 167.967 196.363 169.599 196.363Z" fill="white"/>
<path opacity="0.1" d="M216.374 314.179C218.006 314.179 219.329 313.071 219.329 311.704C219.329 310.336 218.006 309.228 216.374 309.228C214.743 309.228 213.42 310.336 213.42 311.704C213.42 313.071 214.743 314.179 216.374 314.179Z" fill="black"/>
<path opacity="0.1" d="M177.493 314.179C179.125 314.179 180.448 313.071 180.448 311.704C180.448 310.336 179.125 309.228 177.493 309.228C175.862 309.228 174.539 310.336 174.539 311.704C174.539 313.071 175.862 314.179 177.493 314.179Z" fill="black"/>
<path d="M216.374 313.354C218.006 313.354 219.329 312.246 219.329 310.878C219.329 309.511 218.006 308.403 216.374 308.403C214.743 308.403 213.42 309.511 213.42 310.878C213.42 312.246 214.743 313.354 216.374 313.354Z" fill="white"/>
<path opacity="0.1" d="M180.448 355.633C182.079 355.633 183.402 354.525 183.402 353.158C183.402 351.79 182.079 350.682 180.448 350.682C178.816 350.682 177.494 351.79 177.494 353.158C177.494 354.525 178.816 355.633 180.448 355.633Z" fill="black"/>
<path opacity="0.1" d="M217.605 353.158C219.237 353.158 220.56 352.049 220.56 350.682C220.56 349.315 219.237 348.206 217.605 348.206C215.974 348.206 214.651 349.315 214.651 350.682C214.651 352.049 215.974 353.158 217.605 353.158Z" fill="black"/>
<path d="M180.448 354.808C182.079 354.808 183.402 353.7 183.402 352.332C183.402 350.965 182.079 349.857 180.448 349.857C178.816 349.857 177.494 350.965 177.494 352.332C177.494 353.7 178.816 354.808 180.448 354.808Z" fill="white"/>
<path d="M177.493 313.354C179.125 313.354 180.448 312.246 180.448 310.878C180.448 309.511 179.125 308.403 177.493 308.403C175.862 308.403 174.539 309.511 174.539 310.878C174.539 312.246 175.862 313.354 177.493 313.354Z" fill="white"/>
<path d="M217.605 352.332C219.237 352.332 220.56 351.224 220.56 349.857C220.56 348.489 219.237 347.381 217.605 347.381C215.974 347.381 214.651 348.489 214.651 349.857C214.651 351.224 215.974 352.332 217.605 352.332Z" fill="white"/>
<path d="M216.128 160.671C217.76 160.671 219.082 159.563 219.082 158.196C219.082 156.828 217.76 155.72 216.128 155.72C214.497 155.72 213.174 156.828 213.174 158.196C213.174 159.563 214.497 160.671 216.128 160.671Z" fill="white"/>
<path d="M217.605 193.887C219.237 193.887 220.56 192.779 220.56 191.411C220.56 190.044 219.237 188.936 217.605 188.936C215.974 188.936 214.651 190.044 214.651 191.411C214.651 192.779 215.974 193.887 217.605 193.887Z" fill="white"/>
<path opacity="0.1" d="M222.037 278.267C222.037 278.267 222.529 334.796 224.006 344.905C224.006 344.905 224.542 280.932 222.037 278.267Z" fill="black"/>
<path opacity="0.1" d="M234.592 304.469C233.577 304.469 254.78 370.694 255.765 375.439C256.749 380.184 240.501 304.469 234.592 304.469Z" fill="black"/>
<path opacity="0.1" d="M251.333 293.741C251.333 294.36 263.15 329.638 269.059 331.495C274.968 333.352 251.333 293.741 251.333 293.741Z" fill="black"/>
<path opacity="0.1" d="M297.863 225.04C297.863 225.04 272.752 225.978 272.013 229.016C271.275 232.054 297.863 225.04 297.863 225.04Z" fill="black"/>
<path opacity="0.1" d="M253.549 494.066C253.549 494.066 235.577 500.462 238.285 500.875C240.993 501.287 253.549 494.066 253.549 494.066Z" fill="black"/>
<path opacity="0.1" d="M216.374 484.576C215.674 483.257 228.437 489.94 228.437 490.766C228.437 491.591 217.359 486.433 216.374 484.576Z" fill="black"/>
<path opacity="0.1" d="M233.115 506.239C233.115 506.239 247.148 505.645 248.133 510.171C249.117 514.697 233.115 506.239 233.115 506.239Z" fill="black"/>
<path opacity="0.1" d="M132.178 506.213C132.178 506.213 147.441 503.712 148.672 506.213C149.903 508.714 132.178 506.213 132.178 506.213Z" fill="black"/>
<path opacity="0.1" d="M137.84 584.017C137.84 584.017 138.841 594.539 135.14 597.015C131.439 599.49 137.84 584.017 137.84 584.017Z" fill="black"/>
<path opacity="0.1" d="M135.976 606.298C140.794 606.711 166.152 602.997 165.906 606.298C165.659 609.599 135.976 606.298 135.976 606.298Z" fill="black"/>
<path opacity="0.1" d="M252.318 593.507C252.318 593.507 243.669 592.393 245.778 597.283L252.318 593.507Z" fill="black"/>
<path opacity="0.1" d="M91.5567 181.715H86.8791L79.7396 203.584C79.7396 203.584 77.2778 211.217 74.8159 213.074C72.354 214.931 77.0316 231.848 77.0316 231.848C77.0316 231.848 74.3235 243.814 72.1078 246.909C69.8921 250.003 75.5544 257.637 75.5544 257.637L86.8791 279.918L116.914 286.52C116.914 286.52 169.845 296.216 172.307 297.661C174.768 299.105 176.984 297.042 178.707 283.632C180.431 270.221 185.108 244.227 188.801 242.989C188.801 242.989 159.259 245.671 156.797 245.258C154.335 244.846 142.518 245.464 142.518 245.464C142.518 245.464 127.008 244.639 124.546 245.877C122.084 247.115 127.746 239.885 127.746 239.885C128.783 236.574 128.783 233.096 127.746 229.785C126.023 224.215 125.038 161.084 91.5567 181.715Z" fill="black"/>
<path opacity="0.1" d="M187.816 245.464C184.124 246.702 179.446 272.697 177.723 286.107C175.999 299.517 173.784 301.58 171.322 300.136C169.323 298.964 134.039 292.346 120.853 289.903C122.931 279.629 124.054 268.158 124.054 268.158L86.6329 184.191H90.572C124.054 163.56 125.038 226.69 126.762 232.261C127.798 235.572 127.798 239.051 126.762 242.361C126.762 242.361 121.099 249.591 123.561 248.353C126.023 247.115 141.533 247.94 141.533 247.94C141.533 247.94 153.35 247.321 155.812 247.734C158.274 248.146 187.816 245.464 187.816 245.464Z" fill="black"/>
<path d="M90.5721 182.54H85.8945L78.7551 204.409C78.7551 204.409 76.2932 212.042 73.8313 213.899C71.3694 215.756 76.047 232.673 76.047 232.673C76.047 232.673 73.3389 244.639 71.1232 247.734C68.9075 250.828 74.5699 258.462 74.5699 258.462L85.8945 280.743L115.93 287.345C115.93 287.345 168.86 297.042 171.322 298.486C173.784 299.93 176 297.867 177.723 284.457C179.446 271.047 184.124 245.052 187.817 243.814C187.817 243.814 158.274 246.496 155.812 246.083C153.35 245.671 141.533 246.29 141.533 246.29C141.533 246.29 126.023 245.464 123.561 246.702C121.1 247.94 126.762 240.71 126.762 240.71C127.798 237.399 127.798 233.921 126.762 230.61C125.039 225.04 124.054 161.909 90.5721 182.54Z" fill="#6C63FF"/>
<path opacity="0.1" d="M106.574 257.224C106.574 257.224 93.034 278.68 90.5721 276.204C88.1102 273.729 106.574 257.224 106.574 257.224Z" fill="black"/>
<path opacity="0.1" d="M92.5413 245.006C92.5413 245.006 79.9857 253.717 85.8942 255.986C91.8027 258.256 92.5413 245.006 92.5413 245.006Z" fill="black"/>
<path opacity="0.1" d="M104.359 234.324C105.343 234.53 122.577 237.398 122.823 238.646C123.069 239.894 104.359 234.324 104.359 234.324Z" fill="black"/>
<path opacity="0.1" d="M223.868 83.1902C223.333 83.348 222.876 83.6516 222.571 84.0525C222.266 84.4534 222.13 84.9284 222.184 85.4018C221.18 86.1445 219.772 85.2698 218.954 84.3207C218.127 83.3799 217.192 82.2164 215.941 82.3484C215.347 82.5072 214.77 82.7088 214.218 82.9508C212.248 83.479 210.584 81.5397 209.481 79.8397C207.561 76.8606 205.64 73.8843 203.72 70.9107C199.87 72.7839 195.32 70.8199 191.499 68.8805C187.679 66.9412 183.129 64.9689 179.269 66.8422C173.606 69.582 173.4 78.7174 167.53 80.9703C165.64 81.6965 163.444 81.5396 161.691 82.5382C159.958 83.5285 159.022 85.4348 158.244 87.2585C157.956 88.2967 157.28 89.2307 156.314 89.9241C155.7 90.193 155.017 90.3318 154.325 90.3285C152.585 90.5763 150.796 90.3658 149.204 89.726C148.37 89.2867 147.739 88.6219 147.417 87.8417C147.095 87.0614 147.1 86.2123 147.432 85.4348C147.478 85.3524 147.531 85.2725 147.589 85.1955C148.22 84.5564 148.786 83.8746 149.283 83.1572C149.874 81.845 149.027 80.3184 149.214 78.8989C149.519 76.4727 152.582 75.1936 153.104 72.8087C153.32 71.8762 153.094 70.8777 153.301 69.9369C153.33 69.8136 153.369 69.6923 153.419 69.5738L151.617 70.6136C153.636 68.6412 154.65 65.9015 156.127 63.5083C157.768 60.888 160.026 58.5738 162.765 56.7057C165.503 54.8377 168.666 53.4545 172.06 52.6399C178.481 51.072 185.266 51.5011 191.746 52.8297C197.907 54.1161 203.81 56.1542 209.264 58.8787C211.213 59.7544 212.944 60.9335 214.365 62.3529C215.556 63.8246 216.569 65.392 217.389 67.032C219.299 70.3495 224.518 73.4193 220.363 73.8814C216.906 74.2693 220.057 76.2994 221.869 77.6693C222.278 77.9379 222.631 78.2613 222.913 78.6265C223.214 79.1485 223.352 79.7258 223.314 80.3046C223.276 80.8833 223.063 81.4445 222.696 81.9357C221.997 82.6785 224.833 82.827 223.868 83.1902Z" fill="black"/>
<path d="M223.868 82.3649C223.333 82.5227 222.876 82.8263 222.571 83.2272C222.266 83.6281 222.13 84.1032 222.185 84.5765C221.18 85.3192 219.772 84.4445 218.954 83.4954C218.127 82.5547 217.192 81.3911 215.941 81.5231C215.347 81.6819 214.771 81.8835 214.218 82.1256C212.248 82.6537 210.584 80.7144 209.481 79.0144C207.561 76.0353 205.641 73.059 203.72 70.0854C199.87 71.9587 195.32 69.9946 191.5 68.0553C187.679 66.116 183.129 64.1437 179.269 66.017C173.607 68.7568 173.4 77.8921 167.531 80.145C165.64 80.8712 163.444 80.7144 161.691 81.713C159.958 82.7032 159.022 84.6095 158.244 86.4333C157.956 87.4715 157.28 88.4054 156.314 89.0988C155.7 89.3677 155.017 89.5065 154.325 89.5032C152.585 89.751 150.796 89.5405 149.204 88.9007C148.37 88.4614 147.74 87.7967 147.417 87.0164C147.095 86.2361 147.1 85.387 147.432 84.6095C147.478 84.5271 147.531 84.4472 147.589 84.3702C148.22 83.7311 148.787 83.0494 149.283 82.3319C149.874 81.0198 149.027 79.4931 149.214 78.0737C149.519 75.6475 152.582 74.3683 153.104 71.9834C153.321 71.0509 153.094 70.0524 153.301 69.1116C153.33 68.9883 153.369 68.867 153.419 68.7485L151.617 69.7883C153.636 67.816 154.65 65.0762 156.127 62.683C157.768 60.0627 160.026 57.7486 162.765 55.8805C165.503 54.0124 168.666 52.6292 172.06 51.8146C178.481 50.2467 185.266 50.6758 191.746 52.0045C197.907 53.2908 203.81 55.3289 209.265 58.0534C211.213 58.9291 212.944 60.1083 214.365 61.5277C215.556 62.9993 216.569 64.5667 217.389 66.2067C219.299 69.5242 224.518 72.5941 220.363 73.0562C216.906 73.4441 220.057 75.4742 221.869 76.844C222.278 77.1126 222.631 77.4361 222.913 77.8013C223.214 78.3232 223.352 78.9006 223.314 79.4793C223.276 80.058 223.064 80.6193 222.696 81.1105C221.997 81.8532 224.834 82.0018 223.868 82.3649Z" fill="#865A61"/>
<path opacity="0.1" d="M221.869 76.8441L221.475 80.3183C221.475 80.3183 180.155 36.4323 148.013 85.9877C148.013 85.9877 147.855 85.3852 147.589 84.3702C148.22 83.7311 148.787 83.0494 149.283 82.3319C149.874 81.0198 149.027 79.4931 149.214 78.0737C149.519 75.6475 152.582 74.3684 153.104 71.9834C153.32 71.0509 153.094 70.0524 153.301 69.1116C153.33 68.9883 153.369 68.867 153.419 68.7485L151.617 69.7883C153.636 67.816 154.65 65.0762 156.127 62.683C157.768 60.0627 160.026 57.7486 162.765 55.8805C165.503 54.0124 168.666 52.6292 172.06 51.8146C178.481 50.2467 185.266 50.6758 191.746 52.0045C197.907 53.2908 203.81 55.3289 209.264 58.0534C211.213 58.9291 212.944 60.1083 214.365 61.5277C215.556 62.9993 216.569 64.5667 217.389 66.2067C219.299 69.5242 224.518 72.5941 220.363 73.0562C216.906 73.4441 220.057 75.4742 221.869 76.8441Z" fill="black"/>
<g opacity="0.1">
<path opacity="0.1" d="M222.888 81.9154C222.685 82.1073 222.536 82.336 222.455 82.5838C222.374 82.8315 222.362 83.0915 222.42 83.3438C221.415 84.0865 220.007 83.2118 219.19 82.2627C218.363 81.3219 217.427 80.1584 216.177 80.2904C215.583 80.4492 215.006 80.6508 214.453 80.8928C212.484 81.421 210.819 79.4817 209.717 77.7817C207.796 74.8026 205.876 71.8263 203.956 68.8526C200.105 70.7259 195.556 68.7619 191.735 66.8225C187.914 64.8832 183.365 62.9109 179.504 64.7842C173.842 67.524 173.635 76.6594 167.766 78.9123C165.875 79.6385 163.679 79.4816 161.926 80.4802C160.193 81.4705 159.258 83.3768 158.48 85.2005C158.192 86.2387 157.516 87.1727 156.55 87.866C155.936 88.135 155.253 88.2738 154.56 88.2704C152.82 88.5182 151.031 88.3078 149.44 87.668C148.486 87.1379 147.802 86.3291 147.521 85.3994C147.325 86.1387 147.404 86.9104 147.747 87.611C148.09 88.3115 148.681 88.9073 149.44 89.3185C151.031 89.9582 152.82 90.1687 154.56 89.9209C155.253 89.9243 155.936 89.7854 156.55 89.5165C157.516 88.8231 158.192 87.8892 158.48 86.851C159.258 85.0272 160.193 83.1209 161.926 82.1307C163.679 81.1321 165.875 81.2889 167.766 80.5627C173.635 78.3098 173.842 69.1745 179.504 66.4347C183.365 64.5614 187.914 66.5337 191.735 68.473C195.556 70.4123 200.105 72.3764 203.956 70.5031C205.876 73.4739 207.796 76.4503 209.717 79.4322C210.819 81.1321 212.484 83.0714 214.453 82.5433C215.006 82.3012 215.583 82.0997 216.177 81.9408C217.427 81.8088 218.363 82.9724 219.19 83.9132C220.007 84.8622 221.415 85.737 222.42 84.9942C222.365 84.5209 222.501 84.0459 222.807 83.645C223.112 83.2441 223.569 82.9405 224.104 82.7826C224.872 82.4939 223.239 82.3397 222.888 81.9154Z" fill="black"/>
<path opacity="0.1" d="M219.668 73.6706C219.966 73.5703 220.279 73.5041 220.598 73.4739C222.43 73.2702 222.438 72.5587 221.712 71.5434C221.367 71.6993 220.988 71.7946 220.598 71.8235C218.621 72.0453 218.808 72.805 219.668 73.6706Z" fill="black"/>
<path opacity="0.1" d="M223.441 80.5831C223.578 80.0511 223.575 79.5002 223.431 78.9694C223.343 79.2984 223.173 79.608 222.932 79.8778C222.623 80.2054 223.003 80.4173 223.441 80.5831Z" fill="black"/>
<path opacity="0.1" d="M149.507 78.2059C149.486 78.3003 149.462 78.3935 149.45 78.4914C149.409 79.2346 149.474 79.9792 149.643 80.7097C149.759 79.8745 149.713 79.029 149.507 78.2059Z" fill="black"/>
<path opacity="0.1" d="M153.505 68.1376C153.041 68.8733 152.487 69.5666 151.852 70.206L153.442 69.289C153.434 68.9045 153.455 68.5199 153.505 68.1376Z" fill="black"/>
</g>
<path d="M148.011 85.1625C148.011 85.1625 142.069 62.9027 143.959 59.3328C143.959 59.3328 138.827 50.5129 138.827 48.4129C138.579 44.9087 137.278 41.5139 135.046 38.543C132.345 34.9731 129.374 18.3833 145.58 14.3934C161.785 10.4034 174.209 6.83344 176.1 4.1035C177.99 1.37355 205.81 3.0535 213.372 13.5534C220.935 24.0532 225.796 21.9533 225.796 21.9533C225.796 21.9533 237.41 28.0432 237.41 33.5031C237.41 38.9631 233.899 41.693 237.41 42.953C240.921 44.213 238.22 66.8927 222.825 67.5227L221.475 79.4925C221.475 79.4925 180.151 35.6031 148.011 85.1625Z" fill="#6C63FF"/>
<path opacity="0.1" d="M149.78 18.731C149.78 18.731 146.211 36.2673 152.735 42.1471L149.78 18.731Z" fill="black"/>
<path opacity="0.1" d="M166.521 14.708C166.521 14.708 157.412 33.4821 159.628 37.0925L166.521 14.708Z" fill="black"/>
<path opacity="0.1" d="M174.399 8.72507C174.399 8.72507 168.244 33.1727 171.199 35.1326L174.399 8.72507Z" fill="black"/>
<path opacity="0.1" d="M184.985 15.327C184.985 15.327 177.353 31.0064 180.431 33.1727L184.985 15.327Z" fill="black"/>
<path opacity="0.1" d="M199.387 17.1837C199.387 17.1837 190.401 29.9749 192.248 32.2443L199.387 17.1837Z" fill="black"/>
<path opacity="0.1" d="M217.852 29.6654C217.852 29.6654 208.25 31.8317 210.22 34.4105L217.852 29.6654Z" fill="black"/>
<path opacity="0.1" d="M226.96 42.9724C226.96 42.9724 218.344 46.4796 219.944 48.3364L226.96 42.9724Z" fill="black"/>
<path opacity="0.1" d="M143.959 59.3328C143.959 59.3328 198.995 40.599 222.825 67.5227C222.825 67.5227 193.9 46.9132 143.959 59.3328Z" fill="black"/>
<path d="M124.071 213.262L131.74 206.761L153.422 224.722L145.753 231.224L125.813 214.706L124.071 213.262Z" fill="#53526B"/>
<path d="M73.7616 171.587C73.7616 171.587 107.326 173.98 138.565 203.446L125.544 214.484L73.7616 171.587Z" fill="#DFE6F5"/>
<path d="M174.436 224.272C174.436 224.272 142.176 214.417 139.006 212.06C135.835 209.704 117.188 223.415 139.938 242.054C139.938 242.054 167.757 248.696 175.199 242.054C182.641 235.413 174.436 224.272 174.436 224.272Z" fill="#FDC2CC"/>
<defs>
<linearGradient id="paint0_linear" x1="192.508" y1="675.114" x2="192.508" y2="0" gradientUnits="userSpaceOnUse">
<stop stop-color="#808080" stop-opacity="0.25"/>
<stop offset="0.53514" stop-color="#808080" stop-opacity="0.12"/>
<stop offset="1" stop-color="#808080" stop-opacity="0.1"/>
</linearGradient>
</defs>
</svg>
